# This file uses centimeters as units for non-parametric coordinates.

mtllib body.mtl
g default
v -2.002299 1.927647 1.336232
v 2.002299 1.927647 1.336232
v -2.002299 7.153677 1.336232
v 2.002299 7.153677 1.336232
v -2.002299 7.153677 -1.733960
v 2.002299 7.153677 -1.733960
v -2.002299 1.927647 -1.733960
v 2.002299 1.927647 -1.733960
vt 0.375000 0.000000
vt 0.625000 0.000000
vt 0.375000 0.250000
vt 0.625000 0.250000
vt 0.375000 0.500000
vt 0.625000 0.500000
vt 0.375000 0.750000
vt 0.625000 0.750000
vt 0.375000 1.000000
vt 0.625000 1.000000
vt 0.875000 0.000000
vt 0.875000 0.250000
vt 0.125000 0.000000
vt 0.125000 0.250000
vn 0.000000 0.000000 1.000000
vn 0.000000 0.000000 1.000000
vn 0.000000 0.000000 1.000000
vn 0.000000 0.000000 1.000000
vn 0.000000 1.000000 0.000000
vn 0.000000 1.000000 0.000000
vn 0.000000 1.000000 0.000000
vn 0.000000 1.000000 0.000000
vn 0.000000 0.000000 -1.000000
vn 0.000000 0.000000 -1.000000
vn 0.000000 0.000000 -1.000000
vn 0.000000 0.000000 -1.000000
vn 0.000000 -1.000000 0.000000
vn 0.000000 -1.000000 0.000000
vn 0.000000 -1.000000 0.000000
vn 0.000000 -1.000000 0.000000
vn 1.000000 0.000000 0.000000
vn 1.000000 0.000000 0.000000
vn 1.000000 0.000000 0.000000
vn 1.000000 0.000000 0.000000
vn -1.000000 0.000000 0.000000
vn -1.000000 0.000000 0.000000
vn -1.000000 0.000000 0.000000
vn -1.000000 0.000000 0.000000
s off
g Bear_Walk_kakidashi:pCube2
usemtl Bear_Walk_kakidashi:lambert5SG
f 1/1/1 2/2/2 4/4/3 3/3/4
f 3/3/5 4/4/6 6/6/7 5/5/8
f 5/5/9 6/6/10 8/8/11 7/7/12
f 7/7/13 8/8/14 2/10/15 1/9/16
f 2/2/17 8/11/18 6/12/19 4/4/20
f 7/13/21 1/1/22 3/3/23 5/14/24
g default
v -3.408723 7.071559 2.993437
v 3.408723 7.071559 2.993437
v -3.408723 13.117218 2.993437
v 3.408723 13.117218 2.993437
v -3.408723 13.117218 -3.888325
v 3.408723 13.117218 -3.888325
v -3.408723 7.071559 -3.888325
v 3.408723 7.071559 -3.888325
vt 0.375000 0.000000
vt 0.625000 0.000000
vt 0.375000 0.250000
vt 0.625000 0.250000
vt 0.375000 0.500000
vt 0.625000 0.500000
vt 0.375000 0.750000
vt 0.625000 0.750000
vt 0.375000 1.000000
vt 0.625000 1.000000
vt 0.875000 0.000000
vt 0.875000 0.250000
vt 0.125000 0.000000
vt 0.125000 0.250000
vn 0.000000 0.000000 1.000000
vn 0.000000 0.000000 1.000000
vn 0.000000 0.000000 1.000000
vn 0.000000 0.000000 1.000000
vn 0.000000 1.000000 0.000000
vn 0.000000 1.000000 0.000000
vn 0.000000 1.000000 0.000000
vn 0.000000 1.000000 0.000000
vn 0.000000 0.000000 -1.000000
vn 0.000000 0.000000 -1.000000
vn 0.000000 0.000000 -1.000000
vn 0.000000 0.000000 -1.000000
vn 0.000000 -1.000000 0.000000
vn 0.000000 -1.000000 0.000000
vn 0.000000 -1.000000 0.000000
vn 0.000000 -1.000000 0.000000
vn 1.000000 0.000000 0.000000
vn 1.000000 0.000000 0.000000
vn 1.000000 0.000000 0.000000
vn 1.000000 0.000000 0.000000
vn -1.000000 0.000000 0.000000
vn -1.000000 0.000000 0.000000
vn -1.000000 0.000000 0.000000
vn -1.000000 0.000000 0.000000
s off
g Bear_Walk_kakidashi:pCube2 Bear_Walk_kakidashi:pCube1
usemtl Bear_Walk_kakidashi:lambert5SG
f 9/15/25 10/16/26 12/18/27 11/17/28
f 11/17/29 12/18/30 14/20/31 13/19/32
f 13/19/33 14/20/34 16/22/35 15/21/36
f 15/21/37 16/22/38 10/24/39 9/23/40
f 10/16/41 16/25/42 14/26/43 12/18/44
f 15/27/45 9/15/46 11/17/47 13/28/48
g default
v 0.554070 10.917076 3.232963
v 1.042959 10.917076 3.232963
v 0.554070 12.294854 3.232963
v 1.042959 12.294854 3.232963
v 0.554070 12.294854 2.732963
v 1.042959 12.294854 2.732963
v 0.554070 10.917076 2.732963
v 1.042959 10.917076 2.732963
vt 0.375000 0.000000
vt 0.625000 0.000000
vt 0.375000 0.250000
vt 0.625000 0.250000
vt 0.375000 0.500000
vt 0.625000 0.500000
vt 0.375000 0.750000
vt 0.625000 0.750000
vt 0.375000 1.000000
vt 0.625000 1.000000
vt 0.875000 0.000000
vt 0.875000 0.250000
vt 0.125000 0.000000
vt 0.125000 0.250000
vn 0.000000 0.000000 1.000000
vn 0.000000 0.000000 1.000000
vn 0.000000 0.000000 1.000000
vn 0.000000 0.000000 1.000000
vn 0.000000 1.000000 0.000000
vn 0.000000 1.000000 0.000000
vn 0.000000 1.000000 0.000000
vn 0.000000 1.000000 0.000000
vn 0.000000 0.000000 -1.000000
vn 0.000000 0.000000 -1.000000
vn 0.000000 0.000000 -1.000000
vn 0.000000 0.000000 -1.000000
vn 0.000000 -1.000000 0.000000
vn 0.000000 -1.000000 0.000000
vn 0.000000 -1.000000 0.000000
vn 0.000000 -1.000000 0.000000
vn 1.000000 0.000000 0.000000
vn 1.000000 0.000000 0.000000
vn 1.000000 0.000000 0.000000
vn 1.000000 0.000000 0.000000
vn -1.000000 0.000000 0.000000
vn -1.000000 0.000000 0.000000
vn -1.000000 0.000000 0.000000
vn -1.000000 0.000000 0.000000
s off
g Bear_Walk_kakidashi:pCube2 Bear_Walk_kakidashi:pCube1 Bear_Walk_kakidashi:pCube3
usemtl Bear_Walk_kakidashi:lambert3SG
f 17/29/49 18/30/50 20/32/51 19/31/52
f 19/31/53 20/32/54 22/34/55 21/33/56
f 21/33/57 22/34/58 24/36/59 23/35/60
f 23/35/61 24/36/62 18/38/63 17/37/64
f 18/30/65 24/39/66 22/40/67 20/32/68
f 23/41/69 17/29/70 19/31/71 21/42/72
g default
v 0.746665 11.903009 3.289243
v 0.860190 11.903009 3.289243
v 0.746665 12.213940 3.289243
v 0.860190 12.213940 3.289243
v 0.746665 12.213940 3.124128
v 0.860190 12.213940 3.124128
v 0.746665 11.903009 3.124128
v 0.860190 11.903009 3.124128
vt 0.375000 0.000000
vt 0.625000 0.000000
vt 0.375000 0.250000
vt 0.625000 0.250000
vt 0.375000 0.500000
vt 0.625000 0.500000
vt 0.375000 0.750000
vt 0.625000 0.750000
vt 0.375000 1.000000
vt 0.625000 1.000000
vt 0.875000 0.000000
vt 0.875000 0.250000
vt 0.125000 0.000000
vt 0.125000 0.250000
vn 0.000000 0.000000 1.000000
vn 0.000000 0.000000 1.000000
vn 0.000000 0.000000 1.000000
vn 0.000000 0.000000 1.000000
vn 0.000000 1.000000 0.000000
vn 0.000000 1.000000 0.000000
vn 0.000000 1.000000 0.000000
vn 0.000000 1.000000 0.000000
vn 0.000000 0.000000 -1.000000
vn 0.000000 0.000000 -1.000000
vn 0.000000 0.000000 -1.000000
vn 0.000000 0.000000 -1.000000
vn 0.000000 -1.000000 0.000000
vn 0.000000 -1.000000 0.000000
vn 0.000000 -1.000000 0.000000
vn 0.000000 -1.000000 0.000000
vn 1.000000 0.000000 0.000000
vn 1.000000 0.000000 0.000000
vn 1.000000 0.000000 0.000000
vn 1.000000 0.000000 0.000000
vn -1.000000 0.000000 0.000000
vn -1.000000 0.000000 0.000000
vn -1.000000 0.000000 0.000000
vn -1.000000 0.000000 0.000000
s off
g Bear_Walk_kakidashi:pCube2 Bear_Walk_kakidashi:pCube1 Bear_Walk_kakidashi:pCube3 Bear_Walk_kakidashi:pCube4
usemtl Bear_Walk_kakidashi:lambert4SG
f 25/43/73 26/44/74 28/46/75 27/45/76
f 27/45/77 28/46/78 30/48/79 29/47/80
f 29/47/81 30/48/82 32/50/83 31/49/84
f 31/49/85 32/50/86 26/52/87 25/51/88
f 26/44/89 32/53/90 30/54/91 28/46/92
f 31/55/93 25/43/94 27/45/95 29/56/96
g default
v -1.043444 10.917076 3.232963
v -0.554556 10.917076 3.232963
v -1.043444 12.294854 3.232963
v -0.554556 12.294854 3.232963
v -1.043444 12.294854 2.732963
v -0.554556 12.294854 2.732963
v -1.043444 10.917076 2.732963
v -0.554556 10.917076 2.732963
vt 0.375000 0.000000
vt 0.625000 0.000000
vt 0.375000 0.250000
vt 0.625000 0.250000
vt 0.375000 0.500000
vt 0.625000 0.500000
vt 0.375000 0.750000
vt 0.625000 0.750000
vt 0.375000 1.000000
vt 0.625000 1.000000
vt 0.875000 0.000000
vt 0.875000 0.250000
vt 0.125000 0.000000
vt 0.125000 0.250000
vn 0.000000 0.000000 1.000000
vn 0.000000 0.000000 1.000000
vn 0.000000 0.000000 1.000000
vn 0.000000 0.000000 1.000000
vn 0.000000 1.000000 0.000000
vn 0.000000 1.000000 0.000000
vn 0.000000 1.000000 0.000000
vn 0.000000 1.000000 0.000000
vn 0.000000 0.000000 -1.000000
vn 0.000000 0.000000 -1.000000
vn 0.000000 0.000000 -1.000000
vn 0.000000 0.000000 -1.000000
vn 0.000000 -1.000000 0.000000
vn 0.000000 -1.000000 0.000000
vn 0.000000 -1.000000 0.000000
vn 0.000000 -1.000000 0.000000
vn 1.000000 0.000000 0.000000
vn 1.000000 0.000000 0.000000
vn 1.000000 0.000000 0.000000
vn 1.000000 0.000000 0.000000
vn -1.000000 0.000000 0.000000
vn -1.000000 0.000000 0.000000
vn -1.000000 0.000000 0.000000
vn -1.000000 0.000000 0.000000
s off
g Bear_Walk_kakidashi:pCube2 Bear_Walk_kakidashi:pCube1 Bear_Walk_kakidashi:pCube7
usemtl Bear_Walk_kakidashi:lambert3SG
f 33/57/97 34/58/98 36/60/99 35/59/100
f 35/59/101 36/60/102 38/62/103 37/61/104
f 37/61/105 38/62/106 40/64/107 39/63/108
f 39/63/109 40/64/110 34/66/111 33/65/112
f 34/58/113 40/67/114 38/68/115 36/60/116
f 39/69/117 33/57/118 35/59/119 37/70/120
g default
v -0.859762 11.903009 3.289243
v -0.746238 11.903009 3.289243
v -0.859762 12.213940 3.289243
v -0.746238 12.213940 3.289243
v -0.859762 12.213940 3.124128
v -0.746238 12.213940 3.124128
v -0.859762 11.903009 3.124128
v -0.746238 11.903009 3.124128
vt 0.375000 0.000000
vt 0.625000 0.000000
vt 0.375000 0.250000
vt 0.625000 0.250000
vt 0.375000 0.500000
vt 0.625000 0.500000
vt 0.375000 0.750000
vt 0.625000 0.750000
vt 0.375000 1.000000
vt 0.625000 1.000000
vt 0.875000 0.000000
vt 0.875000 0.250000
vt 0.125000 0.000000
vt 0.125000 0.250000
vn 0.000000 0.000000 1.000000
vn 0.000000 0.000000 1.000000
vn 0.000000 0.000000 1.000000
vn 0.000000 0.000000 1.000000
vn 0.000000 1.000000 0.000000
vn 0.000000 1.000000 0.000000
vn 0.000000 1.000000 0.000000
vn 0.000000 1.000000 0.000000
vn 0.000000 0.000000 -1.000000
vn 0.000000 0.000000 -1.000000
vn 0.000000 0.000000 -1.000000
vn 0.000000 0.000000 -1.000000
vn 0.000000 -1.000000 0.000000
vn 0.000000 -1.000000 0.000000
vn 0.000000 -1.000000 0.000000
vn 0.000000 -1.000000 0.000000
vn 1.000000 0.000000 0.000000
vn 1.000000 0.000000 0.000000
vn 1.000000 0.000000 0.000000
vn 1.000000 0.000000 0.000000
vn -1.000000 0.000000 0.000000
vn -1.000000 0.000000 0.000000
vn -1.000000 0.000000 0.000000
vn -1.000000 0.000000 0.000000
s off
g Bear_Walk_kakidashi:pCube2 Bear_Walk_kakidashi:pCube1 Bear_Walk_kakidashi:pCube7 Bear_Walk_kakidashi:pCube8
usemtl Bear_Walk_kakidashi:lambert4SG
f 41/71/121 42/72/122 44/74/123 43/73/124
f 43/73/125 44/74/126 46/76/127 45/75/128
f 45/75/129 46/76/130 48/78/131 47/77/132
f 47/77/133 48/78/134 42/80/135 41/79/136
f 42/72/137 48/81/138 46/82/139 44/74/140
f 47/83/141 41/71/142 43/73/143 45/84/144
g default
v -1.793285 7.958077 4.277212
v 1.793285 7.958077 4.277212
v -1.793285 10.224958 3.856164
v 1.793285 10.224958 3.856164
v -1.793285 9.803910 1.589283
v 1.793285 9.803910 1.589283
v -1.793285 7.537029 2.010331
v 1.793285 7.537029 2.010331
vt 0.375000 0.000000
vt 0.625000 0.000000
vt 0.375000 0.250000
vt 0.625000 0.250000
vt 0.375000 0.500000
vt 0.625000 0.500000
vt 0.375000 0.750000
vt 0.625000 0.750000
vt 0.375000 1.000000
vt 0.625000 1.000000
vt 0.875000 0.000000
vt 0.875000 0.250000
vt 0.125000 0.000000
vt 0.125000 0.250000
vn 0.000000 0.182616 0.983184
vn 0.000000 0.182616 0.983184
vn 0.000000 0.182616 0.983184
vn 0.000000 0.182616 0.983184
vn 0.000000 0.983184 -0.182616
vn 0.000000 0.983184 -0.182616
vn 0.000000 0.983184 -0.182616
vn 0.000000 0.983184 -0.182616
vn 0.000000 -0.182616 -0.983184
vn 0.000000 -0.182616 -0.983184
vn 0.000000 -0.182616 -0.983184
vn 0.000000 -0.182616 -0.983184
vn 0.000000 -0.983184 0.182616
vn 0.000000 -0.983184 0.182616
vn 0.000000 -0.983184 0.182616
vn 0.000000 -0.983184 0.182616
vn 1.000000 0.000000 0.000000
vn 1.000000 0.000000 0.000000
vn 1.000000 0.000000 0.000000
vn 1.000000 0.000000 0.000000
vn -1.000000 0.000000 0.000000
vn -1.000000 0.000000 0.000000
vn -1.000000 0.000000 0.000000
vn -1.000000 0.000000 0.000000
s off
g Bear_Walk_kakidashi:pCube2 Bear_Walk_kakidashi:pCube1 Bear_Walk_kakidashi:pCube16
usemtl Bear_Walk_kakidashi:lambert4SG
f 49/85/145 50/86/146 52/88/147 51/87/148
f 51/87/149 52/88/150 54/90/151 53/89/152
f 53/89/153 54/90/154 56/92/155 55/91/156
f 55/91/157 56/92/158 50/94/159 49/93/160
f 50/86/161 56/95/162 54/96/163 52/88/164
f 55/97/165 49/85/166 51/87/167 53/98/168
g default
v -0.551658 9.437073 4.368289
v 0.654406 9.437073 4.368289
v -0.551658 10.178669 4.142087
v 0.654406 10.178669 4.142087
v -0.551658 9.952467 3.400491
v 0.654406 9.952467 3.400491
v -0.551658 9.210872 3.626693
v 0.654406 9.210872 3.626693
vt 0.375000 0.000000
vt 0.625000 0.000000
vt 0.375000 0.250000
vt 0.625000 0.250000
vt 0.375000 0.500000
vt 0.625000 0.500000
vt 0.375000 0.750000
vt 0.625000 0.750000
vt 0.375000 1.000000
vt 0.625000 1.000000
vt 0.875000 0.000000
vt 0.875000 0.250000
vt 0.125000 0.000000
vt 0.125000 0.250000
vn 0.000000 0.291750 0.956495
vn 0.000000 0.291750 0.956495
vn 0.000000 0.291750 0.956495
vn 0.000000 0.291750 0.956495
vn 0.000000 0.956495 -0.291750
vn 0.000000 0.956495 -0.291750
vn 0.000000 0.956495 -0.291750
vn 0.000000 0.956495 -0.291750
vn 0.000000 -0.291750 -0.956495
vn 0.000000 -0.291750 -0.956495
vn 0.000000 -0.291750 -0.956495
vn 0.000000 -0.291750 -0.956495
vn 0.000000 -0.956495 0.291750
vn 0.000000 -0.956495 0.291750
vn 0.000000 -0.956495 0.291750
vn 0.000000 -0.956495 0.291750
vn 1.000000 -0.000000 0.000000
vn 1.000000 -0.000000 0.000000
vn 1.000000 -0.000000 0.000000
vn 1.000000 -0.000000 0.000000
vn -1.000000 0.000000 0.000000
vn -1.000000 0.000000 0.000000
vn -1.000000 0.000000 0.000000
vn -1.000000 0.000000 0.000000
s off
g Bear_Walk_kakidashi:pCube2 Bear_Walk_kakidashi:pCube1 Bear_Walk_kakidashi:pCube16 Bear_Walk_kakidashi:pCube17
usemtl Bear_Walk_kakidashi:lambert3SG
f 57/99/169 58/100/170 60/102/171 59/101/172
f 59/101/173 60/102/174 62/104/175 61/103/176
f 61/103/177 62/104/178 64/106/179 63/105/180
f 63/105/181 64/106/182 58/108/183 57/107/184
f 58/100/185 64/109/186 62/110/187 60/102/188
f 63/111/189 57/99/190 59/101/191 61/112/192
g default
v -0.691321 7.088740 3.725465
v 0.853124 7.088740 3.725465
v -0.691321 8.134048 3.868457
v 0.853124 8.134048 3.868457
v -0.691321 8.239466 3.097827
v 0.853124 8.239466 3.097827
v -0.691321 7.194158 2.954836
v 0.853124 7.194158 2.954836
vt 0.375000 0.000000
vt 0.625000 0.000000
vt 0.375000 0.250000
vt 0.625000 0.250000
vt 0.375000 0.500000
vt 0.625000 0.500000
vt 0.375000 0.750000
vt 0.625000 0.750000
vt 0.375000 1.000000
vt 0.625000 1.000000
vt 0.875000 0.000000
vt 0.875000 0.250000
vt 0.125000 0.000000
vt 0.125000 0.250000
vn 0.000000 -0.135532 0.990773
vn 0.000000 -0.135532 0.990773
vn 0.000000 -0.135532 0.990773
vn 0.000000 -0.135532 0.990773
vn 0.000000 0.990773 0.135532
vn 0.000000 0.990773 0.135532
vn 0.000000 0.990773 0.135532
vn 0.000000 0.990773 0.135532
vn 0.000000 0.135532 -0.990773
vn 0.000000 0.135532 -0.990773
vn 0.000000 0.135532 -0.990773
vn 0.000000 0.135532 -0.990773
vn 0.000000 -0.990773 -0.135532
vn 0.000000 -0.990773 -0.135532
vn 0.000000 -0.990773 -0.135532
vn 0.000000 -0.990773 -0.135532
vn 1.000000 0.000000 0.000000
vn 1.000000 0.000000 0.000000
vn 1.000000 0.000000 0.000000
vn 1.000000 0.000000 0.000000
vn -1.000000 0.000000 0.000000
vn -1.000000 0.000000 0.000000
vn -1.000000 0.000000 0.000000
vn -1.000000 0.000000 0.000000
s off
g Bear_Walk_kakidashi:pCube2 Bear_Walk_kakidashi:pCube1 Bear_Walk_kakidashi:pCube16 Bear_Walk_kakidashi:pCube18
usemtl Bear_Walk_kakidashi:lambert2SG
f 65/113/193 66/114/194 68/116/195 67/115/196
f 67/115/197 68/116/198 70/118/199 69/117/200
f 69/117/201 70/118/202 72/120/203 71/119/204
f 71/119/205 72/120/206 66/122/207 65/121/208
f 66/114/209 72/123/210 70/124/211 68/116/212
f 71/125/213 65/113/214 67/115/215 69/126/216
g default
v -1.194301 6.601936 3.692609
v 1.247675 6.601936 3.692609
v -1.194301 7.107962 4.024632
v 1.247675 7.107962 4.024632
v -1.194301 7.839382 2.909896
v 1.247675 7.839382 2.909896
v -1.194301 7.333355 2.577873
v 1.247675 7.333355 2.577873
vt 0.375000 0.000000
vt 0.625000 0.000000
vt 0.375000 0.250000
vt 0.625000 0.250000
vt 0.375000 0.500000
vt 0.625000 0.500000
vt 0.375000 0.750000
vt 0.625000 0.750000
vt 0.375000 1.000000
vt 0.625000 1.000000
vt 0.875000 0.000000
vt 0.875000 0.250000
vt 0.125000 0.000000
vt 0.125000 0.250000
vn 0.000000 -0.548590 0.836091
vn 0.000000 -0.548590 0.836091
vn 0.000000 -0.548590 0.836091
vn 0.000000 -0.548590 0.836091
vn 0.000000 0.836091 0.548590
vn 0.000000 0.836091 0.548590
vn 0.000000 0.836091 0.548590
vn 0.000000 0.836091 0.548590
vn 0.000000 0.548591 -0.836091
vn 0.000000 0.548591 -0.836091
vn 0.000000 0.548591 -0.836091
vn 0.000000 0.548591 -0.836091
vn 0.000000 -0.836091 -0.548590
vn 0.000000 -0.836091 -0.548590
vn 0.000000 -0.836091 -0.548590
vn 0.000000 -0.836091 -0.548590
vn 1.000000 -0.000000 -0.000000
vn 1.000000 -0.000000 -0.000000
vn 1.000000 -0.000000 -0.000000
vn 1.000000 -0.000000 -0.000000
vn -1.000000 -0.000000 -0.000000
vn -1.000000 -0.000000 -0.000000
vn -1.000000 -0.000000 -0.000000
vn -1.000000 -0.000000 -0.000000
s off
g Bear_Walk_kakidashi:pCube2 Bear_Walk_kakidashi:pCube1 Bear_Walk_kakidashi:pCube16 Bear_Walk_kakidashi:pCube19
usemtl Bear_Walk_kakidashi:lambert4SG
f 73/127/217 74/128/218 76/130/219 75/129/220
f 75/129/221 76/130/222 78/132/223 77/131/224
f 77/131/225 78/132/226 80/134/227 79/133/228
f 79/133/229 80/134/230 74/136/231 73/135/232
f 74/128/233 80/137/234 78/138/235 76/130/236
f 79/139/237 73/127/238 75/129/239 77/140/240
g default
v 1.489675 12.615262 2.541934
v 3.339484 12.615262 2.541934
v 1.489675 14.455606 2.728818
v 3.339484 14.455606 2.728818
v 1.489675 14.642490 0.888474
v 3.339484 14.642490 0.888474
v 1.489675 12.802146 0.701590
v 3.339484 12.802146 0.701590
vt 0.375000 0.000000
vt 0.625000 0.000000
vt 0.375000 0.250000
vt 0.625000 0.250000
vt 0.375000 0.500000
vt 0.625000 0.500000
vt 0.375000 0.750000
vt 0.625000 0.750000
vt 0.375000 1.000000
vt 0.625000 1.000000
vt 0.875000 0.000000
vt 0.875000 0.250000
vt 0.125000 0.000000
vt 0.125000 0.250000
vn 0.000000 -0.101029 0.994884
vn 0.000000 -0.101029 0.994884
vn 0.000000 -0.101029 0.994884
vn 0.000000 -0.101029 0.994884
vn 0.000000 0.994884 0.101029
vn 0.000000 0.994884 0.101029
vn 0.000000 0.994884 0.101029
vn 0.000000 0.994884 0.101029
vn 0.000000 0.101029 -0.994884
vn 0.000000 0.101029 -0.994884
vn 0.000000 0.101029 -0.994884
vn 0.000000 0.101029 -0.994884
vn 0.000000 -0.994883 -0.101029
vn 0.000000 -0.994883 -0.101029
vn 0.000000 -0.994883 -0.101029
vn 0.000000 -0.994883 -0.101029
vn 1.000000 -0.000000 0.000000
vn 1.000000 -0.000000 0.000000
vn 1.000000 -0.000000 0.000000
vn 1.000000 -0.000000 0.000000
vn -1.000000 0.000000 -0.000000
vn -1.000000 0.000000 -0.000000
vn -1.000000 0.000000 -0.000000
vn -1.000000 0.000000 -0.000000
s off
g Bear_Walk_kakidashi:pCube2 Bear_Walk_kakidashi:pCube1 Bear_Walk_kakidashi:pCube11
usemtl Bear_Walk_kakidashi:lambert5SG
f 81/141/241 82/142/242 84/144/243 83/143/244
f 83/143/245 84/144/246 86/146/247 85/145/248
f 85/145/249 86/146/250 88/148/251 87/147/252
f 87/147/253 88/148/254 82/150/255 81/149/256
f 82/142/257 88/151/258 86/152/259 84/144/260
f 87/153/261 81/141/262 83/143/263 85/154/264
g default
v 1.835262 13.048453 2.686745
v 2.891149 13.048453 2.686745
v 1.835262 14.098938 2.793420
v 2.891149 14.098938 2.793420
v 1.835262 14.205613 1.742936
v 2.891149 14.205613 1.742936
v 1.835262 13.155128 1.636261
v 2.891149 13.155128 1.636261
vt 0.375000 0.000000
vt 0.625000 0.000000
vt 0.375000 0.250000
vt 0.625000 0.250000
vt 0.375000 0.500000
vt 0.625000 0.500000
vt 0.375000 0.750000
vt 0.625000 0.750000
vt 0.375000 1.000000
vt 0.625000 1.000000
vt 0.875000 0.000000
vt 0.875000 0.250000
vt 0.125000 0.000000
vt 0.125000 0.250000
vn 0.000000 -0.101029 0.994884
vn 0.000000 -0.101029 0.994884
vn 0.000000 -0.101029 0.994884
vn 0.000000 -0.101029 0.994884
vn 0.000000 0.994884 0.101029
vn 0.000000 0.994884 0.101029
vn 0.000000 0.994884 0.101029
vn 0.000000 0.994884 0.101029
vn 0.000000 0.101029 -0.994884
vn 0.000000 0.101029 -0.994884
vn 0.000000 0.101029 -0.994884
vn 0.000000 0.101029 -0.994884
vn 0.000000 -0.994884 -0.101029
vn 0.000000 -0.994884 -0.101029
vn 0.000000 -0.994884 -0.101029
vn 0.000000 -0.994884 -0.101029
vn 1.000000 -0.000000 0.000000
vn 1.000000 -0.000000 0.000000
vn 1.000000 -0.000000 0.000000
vn 1.000000 -0.000000 0.000000
vn -1.000000 0.000000 -0.000000
vn -1.000000 0.000000 -0.000000
vn -1.000000 0.000000 -0.000000
vn -1.000000 0.000000 -0.000000
s off
g Bear_Walk_kakidashi:pCube2 Bear_Walk_kakidashi:pCube1 Bear_Walk_kakidashi:pCube11 Bear_Walk_kakidashi:pCube12
usemtl Bear_Walk_kakidashi:lambert4SG
f 89/155/265 90/156/266 92/158/267 91/157/268
f 91/157/269 92/158/270 94/160/271 93/159/272
f 93/159/273 94/160/274 96/162/275 95/161/276
f 95/161/277 96/162/278 90/164/279 89/163/280
f 90/156/281 96/165/282 94/166/283 92/158/284
f 95/167/285 89/155/286 91/157/287 93/168/288
g default
v -3.339904 12.615262 2.541934
v -1.490096 12.615262 2.541934
v -3.339904 14.455606 2.728818
v -1.490096 14.455606 2.728818
v -3.339904 14.642490 0.888474
v -1.490096 14.642490 0.888474
v -3.339904 12.802146 0.701590
v -1.490096 12.802146 0.701590
vt 0.375000 0.000000
vt 0.625000 0.000000
vt 0.375000 0.250000
vt 0.625000 0.250000
vt 0.375000 0.500000
vt 0.625000 0.500000
vt 0.375000 0.750000
vt 0.625000 0.750000
vt 0.375000 1.000000
vt 0.625000 1.000000
vt 0.875000 0.000000
vt 0.875000 0.250000
vt 0.125000 0.000000
vt 0.125000 0.250000
vn 0.000000 -0.101029 0.994884
vn 0.000000 -0.101029 0.994884
vn 0.000000 -0.101029 0.994884
vn 0.000000 -0.101029 0.994884
vn 0.000000 0.994884 0.101029
vn 0.000000 0.994884 0.101029
vn 0.000000 0.994884 0.101029
vn 0.000000 0.994884 0.101029
vn 0.000000 0.101029 -0.994884
vn 0.000000 0.101029 -0.994884
vn 0.000000 0.101029 -0.994884
vn 0.000000 0.101029 -0.994884
vn 0.000000 -0.994884 -0.101029
vn 0.000000 -0.994884 -0.101029
vn 0.000000 -0.994884 -0.101029
vn 0.000000 -0.994884 -0.101029
vn 1.000000 -0.000000 0.000000
vn 1.000000 -0.000000 0.000000
vn 1.000000 -0.000000 0.000000
vn 1.000000 -0.000000 0.000000
vn -1.000000 0.000000 -0.000000
vn -1.000000 0.000000 -0.000000
vn -1.000000 0.000000 -0.000000
vn -1.000000 0.000000 -0.000000
s off
g Bear_Walk_kakidashi:pCube2 Bear_Walk_kakidashi:pCube1 Bear_Walk_kakidashi:pCube13
usemtl Bear_Walk_kakidashi:lambert5SG
f 97/169/289 98/170/290 100/172/291 99/171/292
f 99/171/293 100/172/294 102/174/295 101/173/296
f 101/173/297 102/174/298 104/176/299 103/175/300
f 103/175/301 104/176/302 98/178/303 97/177/304
f 98/170/305 104/179/306 102/180/307 100/172/308
f 103/181/309 97/169/310 99/171/311 101/182/312
g default
v -2.890944 13.048453 2.686745
v -1.835056 13.048453 2.686745
v -2.890944 14.098938 2.793420
v -1.835056 14.098938 2.793420
v -2.890944 14.205613 1.742936
v -1.835056 14.205613 1.742936
v -2.890944 13.155128 1.636261
v -1.835056 13.155128 1.636261
vt 0.375000 0.000000
vt 0.625000 0.000000
vt 0.375000 0.250000
vt 0.625000 0.250000
vt 0.375000 0.500000
vt 0.625000 0.500000
vt 0.375000 0.750000
vt 0.625000 0.750000
vt 0.375000 1.000000
vt 0.625000 1.000000
vt 0.875000 0.000000
vt 0.875000 0.250000
vt 0.125000 0.000000
vt 0.125000 0.250000
vn 0.000000 -0.101029 0.994884
vn 0.000000 -0.101029 0.994884
vn 0.000000 -0.101029 0.994884
vn 0.000000 -0.101029 0.994884
vn 0.000000 0.994884 0.101029
vn 0.000000 0.994884 0.101029
vn 0.000000 0.994884 0.101029
vn 0.000000 0.994884 0.101029
vn 0.000000 0.101029 -0.994884
vn 0.000000 0.101029 -0.994884
vn 0.000000 0.101029 -0.994884
vn 0.000000 0.101029 -0.994884
vn 0.000000 -0.994884 -0.101029
vn 0.000000 -0.994884 -0.101029
vn 0.000000 -0.994884 -0.101029
vn 0.000000 -0.994884 -0.101029
vn 1.000000 0.000000 -0.000000
vn 1.000000 0.000000 -0.000000
vn 1.000000 0.000000 -0.000000
vn 1.000000 0.000000 -0.000000
vn -1.000000 -0.000000 0.000000
vn -1.000000 -0.000000 0.000000
vn -1.000000 -0.000000 0.000000
vn -1.000000 -0.000000 0.000000
s off
g Bear_Walk_kakidashi:pCube2 Bear_Walk_kakidashi:pCube1 Bear_Walk_kakidashi:pCube13 Bear_Walk_kakidashi:pCube14
usemtl Bear_Walk_kakidashi:lambert4SG
f 105/183/313 106/184/314 108/186/315 107/185/316
f 107/185/317 108/186/318 110/188/319 109/187/320
f 109/187/321 110/188/322 112/190/323 111/189/324
f 111/189/325 112/190/326 106/192/327 105/191/328
f 106/184/329 112/193/330 110/194/331 108/186/332
f 111/195/333 105/183/334 107/185/335 109/196/336
