# This file uses centimeters as units for non-parametric coordinates.

mtllib leftleg.mtl
g default
v 0.520492 -0.012642 1.025100
v 1.842714 -0.012642 1.025100
v 0.520492 1.970134 0.869285
v 1.842714 1.970134 0.869285
v 0.520492 1.864806 -0.471028
v 1.842714 1.864806 -0.471028
v 0.520492 -0.117970 -0.315212
v 1.842714 -0.117970 -0.315212
vt 0.375000 0.000000
vt 0.625000 0.000000
vt 0.375000 0.250000
vt 0.625000 0.250000
vt 0.375000 0.500000
vt 0.625000 0.500000
vt 0.375000 0.750000
vt 0.625000 0.750000
vt 0.375000 1.000000
vt 0.625000 1.000000
vt 0.875000 0.000000
vt 0.875000 0.250000
vt 0.125000 0.000000
vt 0.125000 0.250000
vn 0.000000 0.078343 0.996927
vn 0.000000 0.078343 0.996927
vn 0.000000 0.078343 0.996927
vn 0.000000 0.078343 0.996927
vn 0.000000 0.996927 -0.078343
vn 0.000000 0.996927 -0.078343
vn 0.000000 0.996927 -0.078343
vn 0.000000 0.996927 -0.078343
vn 0.000000 -0.078343 -0.996927
vn 0.000000 -0.078343 -0.996927
vn 0.000000 -0.078343 -0.996927
vn 0.000000 -0.078343 -0.996927
vn 0.000000 -0.996927 0.078343
vn 0.000000 -0.996927 0.078343
vn 0.000000 -0.996927 0.078343
vn 0.000000 -0.996927 0.078343
vn 1.000000 0.000000 0.000000
vn 1.000000 0.000000 0.000000
vn 1.000000 0.000000 0.000000
vn 1.000000 0.000000 0.000000
vn -1.000000 0.000000 0.000000
vn -1.000000 0.000000 0.000000
vn -1.000000 0.000000 0.000000
vn -1.000000 0.000000 0.000000
s off
g Bear_Walk_kakidashi:pCube6 Bear_Walk_kakidashi:pCube2
usemtl Bear_Walk_kakidashi:lambert5SG
f 1/1/1 2/2/2 4/4/3 3/3/4
f 3/3/5 4/4/6 6/6/7 5/5/8
f 5/5/9 6/6/10 8/8/11 7/7/12
f 7/7/13 8/8/14 2/10/15 1/9/16
f 2/2/17 8/11/18 6/12/19 4/4/20
f 7/13/21 1/1/22 3/3/23 5/14/24
